<?xml version="1.0" encoding="iso-8859-1"?>
<!-- Uploaded to: SVG Repo, www.svgrepo.com, Generator: SVG Repo Mixer Tools -->
<svg height="800px" width="800px" version="1.1" id="Layer_1" xmlns="http://www.w3.org/2000/svg" xmlns:xlink="http://www.w3.org/1999/xlink" 
	 viewBox="0 0 511.577 511.577" xml:space="preserve">
<g>
	<path style="fill:#434C6D;" d="M464.06,216.524c-4.799,0-8.678-3.879-8.678-8.678V147.1c0-47.85-38.929-86.78-86.78-86.78H230.128
		c-4.799,0-8.678-3.879-8.678-8.678s3.879-8.678,8.678-8.678h138.474c57.422,0,104.136,46.713,104.136,104.136v60.746
		C472.738,212.645,468.859,216.524,464.06,216.524"/>
	<path style="fill:#F30043;" d="M152.398,136.902c30.998-20.949,71.645-20.949,102.643,0c33.167,22.415,70.17,62.846,70.17,131.688
		v15.794c0,18.302-2.708,36.5-8.036,54.003L273.17,482.962c-5.172,17-20.844,28.611-38.608,28.611H203.72h-30.842
		c-17.764,0-33.436-11.611-38.608-28.611L90.264,338.387c-5.328-17.503-8.036-35.701-8.036-54.003V268.59
		C82.228,199.748,119.231,159.317,152.398,136.902"/>
	<path style="fill:#434C6D;" d="M177.687,77.676h52.068V25.609h-52.068V77.676z"/>
	<path style="fill:#252E49;" d="M177.687,60.32h17.356V42.964h-17.356V60.32z"/>
	<g>
		<path style="fill:#139DB5;" d="M21.484,60.32h-8.678c-4.799,0-8.678-3.879-8.678-8.678s3.879-8.678,8.678-8.678h8.678
			c4.799,0,8.678,3.879,8.678,8.678S26.282,60.32,21.484,60.32 M56.195,60.32h-8.678c-4.799,0-8.678-3.879-8.678-8.678
			s3.879-8.678,8.678-8.678h8.678c4.799,0,8.678,3.879,8.678,8.678S60.994,60.32,56.195,60.32 M90.907,60.32h-8.678
			c-4.799,0-8.678-3.879-8.678-8.678s3.879-8.678,8.678-8.678h8.678c4.799,0,8.678,3.879,8.678,8.678S95.706,60.32,90.907,60.32
			 M125.619,60.32h-8.678c-4.799,0-8.678-3.879-8.678-8.678s3.879-8.678,8.678-8.678h8.678c4.799,0,8.678,3.879,8.678,8.678
			S130.418,60.32,125.619,60.32"/>
		<path style="fill:#139DB5;" d="M57.856,19.227c-0.625,0-1.258-0.069-1.892-0.2l-8.47-1.883c-4.677-1.041-7.628-5.684-6.595-10.361
			c1.041-4.677,5.719-7.585,10.353-6.587l8.478,1.874c4.677,1.05,7.628,5.684,6.595,10.361
			C65.424,16.476,61.831,19.227,57.856,19.227 M91.744,26.751c-0.625,0-1.25-0.069-1.883-0.2l-8.478-1.883
			c-4.677-1.041-7.628-5.675-6.595-10.353c1.041-4.677,5.719-7.585,10.361-6.595l8.47,1.883c4.677,1.041,7.628,5.675,6.595,10.353
			C99.311,24,95.718,26.751,91.744,26.751 M125.631,34.283c-0.633,0-1.258-0.061-1.892-0.2l-8.478-1.883
			c-4.677-1.041-7.628-5.675-6.595-10.353c1.05-4.677,5.71-7.559,10.361-6.595l8.47,1.883c4.677,1.041,7.628,5.675,6.595,10.353
			C133.198,31.532,129.606,34.283,125.631,34.283"/>
		<path style="fill:#139DB5;" d="M117.136,88.236c-3.983,0-7.567-2.751-8.47-6.795c-1.033-4.677,1.918-9.311,6.595-10.361
			l8.478-1.874c4.677-0.989,9.32,1.909,10.353,6.587s-1.918,9.32-6.595,10.361l-8.47,1.883
			C118.395,88.166,117.761,88.236,117.136,88.236 M83.258,95.768c-3.983,0-7.567-2.751-8.47-6.795
			c-1.033-4.677,1.918-9.311,6.595-10.353l8.47-1.883c4.686-0.972,9.32,1.918,10.361,6.595c1.033,4.677-1.918,9.311-6.595,10.353
			l-8.478,1.883C84.507,95.699,83.882,95.768,83.258,95.768 M49.362,103.292c-3.983,0-7.567-2.751-8.461-6.795
			c-1.033-4.677,1.918-9.311,6.595-10.353l8.47-1.883c4.686-0.989,9.32,1.918,10.361,6.595c1.033,4.677-1.918,9.311-6.595,10.353
			l-8.478,1.883C50.62,103.231,49.995,103.292,49.362,103.292"/>
	</g>
	<path style="fill:#252E49;" d="M160.331,132.374V85.087c0-4.096,3.315-7.411,7.411-7.411H239.7c4.096,0,7.411,3.315,7.411,7.411
		v47.286C220.001,117.769,187.441,117.769,160.331,132.374"/>
	<g>
		<path style="fill:#B8004F;" d="M324.846,294.281c-0.798,14.943-3.306,29.765-7.671,44.101l-43.997,144.584
			c-5.172,16.991-20.853,28.611-38.617,28.611h-30.842h-30.841c-17.764,0-33.436-11.62-38.608-28.611L90.263,338.382
			c-4.261-14.006-6.769-28.464-7.628-43.051c33.653,34.668,87.587,33.835,121.084-0.729v0.373
			C237.233,260.394,291.193,259.578,324.846,294.281"/>
		<path style="fill:#B8004F;" d="M142.975,346.693v-17.356c25.14,0,52.068-83.69,52.068-208.271h17.356
			C212.399,229.732,190.669,346.693,142.975,346.693"/>
	</g>
	<path style="fill:#252E49;" d="M420.67,298.964c0,50.324,19.43,91.119,43.39,91.119s43.39-40.795,43.39-91.119
		s-19.43-91.119-43.39-91.119S420.67,248.641,420.67,298.964"/>
</g>
</svg>