<?xml version="1.0" encoding="iso-8859-1"?>
<!-- Uploaded to: SVG Repo, www.svgrepo.com, Generator: SVG Repo Mixer Tools -->
<svg height="800px" width="800px" version="1.1" id="Layer_1" xmlns="http://www.w3.org/2000/svg" xmlns:xlink="http://www.w3.org/1999/xlink" 
	 viewBox="0 0 512 512" xml:space="preserve">
<path style="fill:#F9A926;" d="M294.957,133.565h-77.913c-9.217,0-16.696-7.473-16.696-16.696V16.696
	C200.348,7.473,207.826,0,217.043,0h77.913c9.217,0,16.696,7.473,16.696,16.696V116.87
	C311.652,126.092,304.174,133.565,294.957,133.565z"/>
<path style="fill:#E69717;" d="M294.957,0H256v133.565h38.957c9.217,0,16.696-7.473,16.696-16.696V16.696
	C311.652,7.473,304.174,0,294.957,0z"/>
<path style="fill:#FFC033;" d="M328.348,100.174H183.652c-9.217,0-16.696,7.473-16.696,16.696v128h178.087v-128
	C345.043,107.647,337.565,100.174,328.348,100.174z"/>
<path style="fill:#F9A926;" d="M328.348,100.174H256V244.87h89.043v-128C345.043,107.647,337.565,100.174,328.348,100.174z"/>
<path style="fill:#CCE8FF;" d="M348.054,189.293c-30.989,0-58.565,13.468-79.761,38.951c-5.978,7.185-18.609,7.185-24.587,0
	c-21.196-25.484-48.771-38.951-79.761-38.951c-60.978,0-108.75,51.179-108.75,116.517c0,0.346,0.058,0.688,0.06,1.034
	c0.073,11.612,1.461,23.174,3.804,34.581c9.756-4.361,20.459-7.932,31.834-10.664c51.223-12.302,115.074-8.126,157.834,12.609
	c31.457,15.255,95.87,22.881,129.706,22.881c11.288,0,22.573-0.922,33.778-2.621c12.633-1.917,25.149-4.906,37.438-8.986
	c3.489-12.578,5.727-25.402,6.542-38.351c0.22-3.495,0.611-6.979,0.611-10.483C456.804,240.473,409.032,189.293,348.054,189.293z"/>
<path style="fill:#B0DBFF;" d="M378.435,366.25c11.288,0,22.573-0.922,33.778-2.621c12.633-1.917,25.149-4.906,37.438-8.986
	c3.489-12.578,5.727-25.402,6.542-38.351c0.22-3.495,0.611-6.979,0.611-10.483c0-65.337-47.772-116.517-108.75-116.517
	c-30.989,0-58.565,13.468-79.761,38.951c-2.99,3.593-7.641,5.388-12.294,5.388v112.882
	C289.281,359.665,347.018,366.25,378.435,366.25z"/>
<path style="fill:#E6563A;" d="M421.772,326.886c-51.959,11.073-116.911,6.588-158.478-13.56
	c-48.201-23.373-116.712-28.77-174.324-16.328c-11.783,2.544-23.115,5.803-33.715,9.846c0.073,11.612,1.461,23.174,3.804,34.581
	C77.689,432.119,161.724,512,213.054,512h85.891c48.814,0,127.103-72.275,150.705-157.357c3.489-12.578,5.727-25.402,6.542-38.351
	C445.779,320.713,434.168,324.244,421.772,326.886z"/>
<path style="fill:#D9472B;" d="M263.294,313.326c-2.316-1.124-4.886-2.007-7.294-3.046V512h42.946
	c48.814,0,127.103-72.275,150.705-157.357c3.489-12.578,5.727-25.402,6.542-38.351c-10.413,4.421-22.025,7.953-34.421,10.594
	C369.812,337.958,304.861,333.474,263.294,313.326z"/>
</svg>